<svg width="72" height="72" viewBox="0 0 72 72" fill="none" xmlns="http://www.w3.org/2000/svg">
<g clip-path="url(#clip0_201_32)">
<rect width="72" height="72" rx="5" fill="white"/>
<path d="M18.3833 53.7078C18.3833 54.0007 18.327 54.3613 18.2143 54.7895C18.1242 55.1951 17.8875 55.5894 17.5044 55.9725C17.1439 56.3331 16.6143 56.6373 15.9157 56.8852C15.2171 57.1556 14.2707 57.2908 13.0763 57.2908C11.882 57.2908 10.9468 57.1444 10.2707 56.8514C9.59466 56.581 9.08762 56.2542 8.7496 55.8711C8.41157 55.488 8.19749 55.0937 8.10735 54.688C8.03975 54.2824 8.00594 53.9557 8.00594 53.7078V27.6122C8.00594 26.9587 7.8482 26.3954 7.53271 25.9221C7.23975 25.4263 6.73272 25.1785 6.0116 25.1785C5.6285 25.1785 5.30174 25.2461 5.03132 25.3813C4.7609 25.5165 4.46795 25.708 4.15246 25.9559L3.44261 25.1109C3.96091 24.6827 4.53555 24.2658 5.16653 23.8602C5.82005 23.432 6.51863 23.0602 7.26229 22.7447C8.00594 22.4292 8.80594 22.17 9.66227 21.9672C10.5186 21.7644 11.42 21.663 12.3665 21.663C13.8312 21.663 14.9693 21.8658 15.7805 22.2714C16.5918 22.6545 17.189 23.139 17.5721 23.725C17.9551 24.2883 18.1805 24.8968 18.2481 25.5503C18.3382 26.2038 18.3833 26.7784 18.3833 27.2742V53.7078ZM6.95807 13.956C6.95807 13.3251 7.09328 12.7279 7.3637 12.1645C7.65665 11.5786 8.05101 11.0716 8.54678 10.6434C9.06509 10.2152 9.651 9.8772 10.3045 9.62931C10.9806 9.38143 11.713 9.25748 12.5017 9.25748C13.2679 9.25748 13.9777 9.38143 14.6312 9.62931C15.3073 9.8772 15.8932 10.2152 16.389 10.6434C16.8847 11.0716 17.2678 11.5786 17.5382 12.1645C17.8312 12.7279 17.9777 13.3251 17.9777 13.956C17.9777 14.6095 17.8312 15.218 17.5382 15.7814C17.2678 16.3447 16.8847 16.8405 16.389 17.2687C15.8932 17.6743 15.3073 18.0011 14.6312 18.249C13.9777 18.4968 13.2679 18.6208 12.5017 18.6208C11.713 18.6208 10.9806 18.4968 10.3045 18.249C9.651 18.0011 9.06509 17.6743 8.54678 17.2687C8.05101 16.8405 7.65665 16.3447 7.3637 15.7814C7.09328 15.218 6.95807 14.6095 6.95807 13.956Z" fill="#414D55"/>
<path d="M23.2412 27.3125V18.6212H24.6173V22.2426H28.2629V18.6212H29.639V27.3125H28.2629V23.4014H24.6173V27.3125H23.2412ZM32.2475 27.3125V18.6212H37.2812V19.7438H33.6236V22.3753H36.7984V23.4255H33.6236V26.1899H37.5227L37.3537 27.3125H32.2475ZM38.4719 27.3125L41.3328 18.8022C41.3971 18.6332 41.538 18.5487 41.7553 18.5487C41.8438 18.5487 42.2743 18.5729 43.0469 18.6212L45.9319 27.3125H44.5196L43.7349 24.7775H40.6809L39.9083 27.3125H38.4719ZM41.0068 23.6911H43.397L42.1898 19.78V19.8524L41.0068 23.6911ZM47.537 27.3125V18.6936C48.1647 18.597 49.1264 18.5487 50.4221 18.5487C51.2912 18.5487 51.9591 18.7982 52.4259 19.2972C52.8927 19.7881 53.126 20.4198 53.126 21.1924C53.126 21.7235 52.9973 22.1943 52.7398 22.6047C52.4822 23.0071 52.112 23.3129 51.6292 23.5221L52.438 25.4052C52.5828 25.7352 52.7639 25.9927 52.9812 26.1778C53.1985 26.3548 53.4318 26.4434 53.6813 26.4434L53.4882 27.3849H53.1985C52.8283 27.3849 52.4621 27.2884 52.1 27.0952C51.7459 26.894 51.4803 26.5963 51.3033 26.2019L50.2169 23.7998C50.1525 23.8078 50.0479 23.8118 49.903 23.8118H48.9132V27.3125H47.537ZM48.9132 22.7496H50.9411C51.0538 22.7093 51.1785 22.6127 51.3153 22.4598C51.5568 22.1862 51.6775 21.7919 51.6775 21.2769C51.6775 20.1824 51.1624 19.6352 50.1324 19.6352C49.7783 19.6352 49.3719 19.6553 48.9132 19.6955V22.7496ZM55.5295 27.3125V18.6815C56.5033 18.593 57.6018 18.5487 58.825 18.5487C59.8631 18.5487 60.7122 18.9069 61.372 19.6231C62.04 20.3393 62.374 21.4096 62.374 22.8341C62.374 24.2504 62.0319 25.365 61.3479 26.1778C60.6639 26.9826 59.6177 27.3849 58.2094 27.3849C56.8011 27.3849 55.9078 27.3608 55.5295 27.3125ZM56.9057 26.2502C57.3885 26.2824 57.9197 26.2985 58.4991 26.2985C59.4085 26.2985 60.0442 26.0048 60.4063 25.4173C60.7765 24.8218 60.9616 23.9527 60.9616 22.8099C60.9616 21.6672 60.7524 20.8544 60.3339 20.3715C59.9235 19.8806 59.3481 19.6352 58.6077 19.6352C58.2778 19.6352 57.7104 19.6593 56.9057 19.7076V26.2502ZM22.2393 41.3125L25.1002 32.8022C25.1646 32.6332 25.3054 32.5487 25.5227 32.5487C25.6112 32.5487 26.0417 32.5729 26.8143 32.6212L29.6993 41.3125H28.287L27.5024 38.7775H24.4483L23.6758 41.3125H22.2393ZM24.7743 37.6911H27.1644L25.9572 33.78V33.8524L24.7743 37.6911ZM23.2412 55.3125V46.6936C23.8689 46.597 24.8306 46.5487 26.1262 46.5487C26.9954 46.5487 27.6633 46.7982 28.1301 47.2972C28.5968 47.7881 28.8302 48.4198 28.8302 49.1924C28.8302 49.7235 28.7014 50.1943 28.4439 50.6047C28.1864 51.0071 27.8162 51.3129 27.3334 51.5221L28.1421 53.4052C28.287 53.7352 28.4681 53.9927 28.6854 54.1778C28.9026 54.3548 29.136 54.4434 29.3855 54.4434L29.1923 55.3849H28.9026C28.5324 55.3849 28.1663 55.2884 27.8041 55.0952C27.4501 54.894 27.1845 54.5963 27.0074 54.2019L25.921 51.7998C25.8566 51.8078 25.752 51.8118 25.6072 51.8118H24.6173V55.3125H23.2412ZM24.6173 50.7496H26.6453C26.758 50.7093 26.8827 50.6127 27.0195 50.4598C27.2609 50.1862 27.3817 49.7919 27.3817 49.2769C27.3817 48.1824 26.8666 47.6352 25.8365 47.6352C25.4824 47.6352 25.076 47.6553 24.6173 47.6955V50.7496ZM31.0164 52.693V46.6212H32.3926V52.4757C32.3926 53.0552 32.5334 53.5179 32.8151 53.8639C33.1048 54.2019 33.5474 54.3709 34.1429 54.3709C35.3661 54.3709 35.9777 53.7432 35.9777 52.4878V46.6212H37.3539V52.2705C37.3539 53.2443 37.0762 54.0209 36.5209 54.6003C35.9657 55.1717 35.1649 55.4574 34.1188 55.4574C33.0726 55.4574 32.292 55.2119 31.7769 54.721C31.2699 54.2221 31.0164 53.5461 31.0164 52.693ZM39.6242 55.3125L40.0226 46.7057C40.5698 46.6011 41.1009 46.5487 41.616 46.5487C41.7769 46.5487 41.8936 46.6373 41.966 46.8143L44.2717 53.1155L46.5773 46.8143C46.6497 46.6373 46.7664 46.5487 46.9273 46.5487C47.5068 46.5487 48.0379 46.6011 48.5207 46.7057L48.9191 55.3125H47.6033L47.3981 47.9128L45.1891 54.1054C44.5131 54.218 44.0463 54.2744 43.7888 54.2744C43.5313 54.2744 43.3703 54.1858 43.3059 54.0088L41.1452 47.9128L40.94 55.3125H39.6242ZM54.1374 55.4574C53.1153 55.4574 52.2663 55.0872 51.5903 54.3468C50.9224 53.5984 50.5884 52.512 50.5884 51.0875C50.5884 49.6551 50.9304 48.5284 51.6145 47.7076C52.2985 46.8867 53.3246 46.4763 54.6927 46.4763C55.7227 46.4763 56.5718 46.8465 57.2397 47.5869C57.9077 48.3192 58.2416 49.4016 58.2416 50.8341C58.2416 52.2585 57.8996 53.3851 57.2156 54.214C56.5315 55.0429 55.5055 55.4574 54.1374 55.4574ZM54.3667 54.2985C55.2761 54.2985 55.9119 54.0048 56.274 53.4173C56.6442 52.8218 56.8293 51.9527 56.8293 50.8099C56.8293 49.6672 56.62 48.8544 56.2016 48.3715C55.7912 47.8806 55.2158 47.6352 54.4754 47.6352C53.5499 47.6352 52.9061 47.953 52.544 48.5888C52.214 49.1763 52.0491 50.0293 52.0491 51.1479C52.0491 52.2585 52.2543 53.0632 52.6647 53.5622C53.0751 54.0531 53.6425 54.2985 54.3667 54.2985ZM60.2685 55.3125V46.6936C60.8962 46.597 61.8579 46.5487 63.1535 46.5487C64.0226 46.5487 64.6906 46.7982 65.1573 47.2972C65.6241 47.7881 65.8575 48.4198 65.8575 49.1924C65.8575 49.7235 65.7287 50.1943 65.4712 50.6047C65.2137 51.0071 64.8435 51.3129 64.3606 51.5221L65.1694 53.4052C65.3143 53.7352 65.4953 53.9927 65.7126 54.1778C65.9299 54.3548 66.1633 54.4434 66.4128 54.4434L66.2196 55.3849H65.9299C65.5597 55.3849 65.1936 55.2884 64.8314 55.0952C64.4773 54.894 64.2118 54.5963 64.0347 54.2019L62.9483 51.7998C62.8839 51.8078 62.7793 51.8118 62.6344 51.8118H61.6446V55.3125H60.2685ZM61.6446 50.7496H63.6726C63.7852 50.7093 63.91 50.6127 64.0468 50.4598C64.2882 50.1862 64.4089 49.7919 64.4089 49.2769C64.4089 48.1824 63.8939 47.6352 62.8638 47.6352C62.5097 47.6352 62.1033 47.6553 61.6446 47.6955V50.7496Z" fill="#1D9BF0"/>
</g>
<defs>
<clipPath id="clip0_201_32">
<rect width="72" height="72" rx="5" fill="white"/>
</clipPath>
</defs>
</svg>
